<?xml version="1.0" encoding="UTF-8"?>
<svg id="Layer_2" data-name="Layer 2" xmlns="http://www.w3.org/2000/svg" viewBox="0 0 283.46 435.99">
  <defs>
    <style>
      .cls-1 {
        fill: #000;
      }

      .cls-1, .cls-2, .cls-3, .cls-4, .cls-5, .cls-6 {
        stroke-width: 0px;
      }

      .cls-2, .cls-7 {
        fill: #c28840;
      }

      .cls-8 {
        letter-spacing: -.03em;
      }

      .cls-9 {
        letter-spacing: -.01em;
      }

      .cls-10 {
        letter-spacing: -.04em;
      }

      .cls-3 {
        fill: #f6f6f6;
      }

      .cls-4 {
        fill: #2d2d2d;
      }

      .cls-5 {
        fill: #fff;
      }

      .cls-6 {
        fill: #0b8530;
      }

      .cls-7 {
        font-family: Roboto-Bold, Roboto;
        font-size: 27.98px;
        font-weight: 700;
      }
    </style>
  </defs>
  <g id="Layer_1-2" data-name="Layer 1">
    <g>
      <g>
        <rect class="cls-1" width="283.46" height="435.99" rx="22.38" ry="22.38"/>
        <rect class="cls-5" x=".4" y=".4" width="282.66" height="435.18" rx="21.97" ry="21.97"/>
        <path class="cls-6" d="M261.09,11.67H22.38c-5.92,0-10.71,4.8-10.71,10.71v56.63h260.13V22.38c0-5.91-4.8-10.71-10.71-10.71Z"/>
        <path class="cls-4" d="M261.09,8.85H22.38c-7.46,0-13.53,6.07-13.53,13.53v391.24c0,7.46,6.07,13.53,13.53,13.53h238.71c7.46,0,13.53-6.07,13.53-13.53V22.38c0-7.46-6.07-13.53-13.53-13.53ZM14.48,22.38c0-4.08,3.11-7.45,7.09-7.85.27-.03.53-.04.81-.04h238.71c.27,0,.54.01.81.04,3.98.41,7.09,3.77,7.09,7.85v53.82H14.48V22.38ZM268.98,81.82v215.49H14.48V81.82h254.5Z"/>
        <g>
          <path class="cls-5" d="M38.51,40.68c-1.97-1.37-3.37-2.43-3.37-3.66,0-1.35,1.26-2.26,3.15-2.26,1.84-.05,3.55.66,4.46,1.27l.93.62,2.43-7.98-.72-.46c-1.82-1.16-4.01-1.73-6.68-1.73-6.68,0-11.34,4.83-11.34,11.75,0,5.11,3.4,7.94,5.96,9.63,2.61,1.72,3.09,2.58,3.09,3.65,0,2.09-2.07,2.65-3.29,2.65-2.02,0-4.13-.7-5.78-1.92l-.92-.68-2.56,7.82.59.52c1.75,1.55,4.78,2.5,8.13,2.54,7,0,11.7-4.88,11.7-12.14,0-4.03-1.88-7.18-5.76-9.63Z"/>
          <path class="cls-5" d="M56.03,26.97l-13.8,34.94h8.12l3.11-8.48h6.19l.51,8.48h7.87l-3.32-34.94h-8.67ZM59.25,45.83h-3.29l2.03-5.42c.24-.64.48-1.34.72-2.07.03.6.06,1.16.08,1.66l.46,5.84Z"/>
          <polygon class="cls-5" points="80.41 35.2 90.25 35.2 91.55 26.97 74.14 26.97 68.75 61.91 76.29 61.91 78.3 48.73 87.49 48.73 88.8 40.59 79.56 40.59 80.41 35.2"/>
          <polygon class="cls-5" points="110.51 35.2 111.81 26.97 94.24 26.97 88.86 61.91 107.02 61.91 108.26 53.68 97.69 53.68 98.56 48.05 107.95 48.05 109.26 39.92 99.77 39.92 100.52 35.2 110.51 35.2"/>
          <path class="cls-5" d="M145.19,35.78c-.59,1.27-1.09,2.38-1.56,3.41-.16-.89-.34-1.88-.57-3.07l-1.87-9.15h-28.77l-1.35,8.37h7.01l-4.09,26.57h7.54l4.09-26.57h7.08l.98-6.37,4.98,18.55-2.21,14.39h7.54l2.15-14.15,12.4-20.79h-9.11l-4.25,8.81Z"/>
          <polygon class="cls-5" points="171.73 40.59 172.59 35.2 182.43 35.2 183.73 26.97 166.31 26.97 160.93 61.91 168.47 61.91 170.47 48.73 179.67 48.73 180.98 40.59 171.73 40.59"/>
          <polygon class="cls-5" points="186.3 26.97 180.91 61.91 188.45 61.91 193.83 26.97 186.3 26.97"/>
          <path class="cls-5" d="M212.6,54.59c-.09-1.07-.17-2.18-.28-3.23-.2-2.55-.75-4.41-1.66-5.64,3.3-1.91,5.17-5.33,5.17-9.62,0-3.12-1.2-5.72-3.39-7.32-1.74-1.37-4.25-2.06-7.44-2.06-2.79,0-5.52.32-7.3.86l-.57.17-5.28,34.16h7.46l1.97-12.9h.97c1.41,0,2.44.3,2.7,4.14.14,2.41.43,6.66.79,7.99l.21.77h7.88l-.55-1.58c-.28-.81-.49-3.43-.68-5.75ZM203.54,34.56c.38-.06.85-.09,1.42-.09,1.43,0,3.13.47,3.13,2.7,0,2.56-1.81,4.35-4.39,4.35h-1.21l1.06-6.96Z"/>
          <path class="cls-5" d="M228.42,34.76c1.84-.05,3.55.66,4.46,1.27l.93.62,2.43-7.98-.72-.46c-1.82-1.16-4.01-1.73-6.68-1.73-6.68,0-11.34,4.83-11.34,11.75,0,5.11,3.4,7.94,5.96,9.63,2.61,1.72,3.09,2.58,3.09,3.65,0,2.09-2.07,2.65-3.29,2.65-2.02,0-4.13-.7-5.78-1.92l-.92-.68-2.56,7.82.59.52c1.75,1.55,4.78,2.5,8.13,2.54,7,0,11.7-4.88,11.7-12.14,0-4.03-1.88-7.18-5.76-9.63-1.97-1.37-3.37-2.43-3.37-3.66,0-1.35,1.26-2.26,3.15-2.26Z"/>
          <polygon class="cls-5" points="238.04 26.97 236.69 35.34 243.7 35.34 239.61 61.91 247.15 61.91 251.24 35.34 258.32 35.34 259.61 26.97 238.04 26.97"/>
        </g>
      </g>
      <g>
        <g>
          <circle class="cls-2" cx="141.73" cy="189.43" r="94.89" transform="translate(-92.44 155.7) rotate(-45)"/>
          <g>
            <path class="cls-3" d="M95.89,110.02h0c-.69.4-.93,1.31-.53,2l8.67,15.01c.4.69,1.3.93,2,.53h0c.69-.4.93-1.31.53-2l-8.67-15.01c-.4-.69-1.3-.93-2-.53Z"/>
            <path class="cls-3" d="M76.9,124.59h0c-.57.57-.57,1.51,0,2.07l12.26,12.26c.57.57,1.5.57,2.07,0h0c.57-.57.57-1.51,0-2.07l-12.26-12.26c-.57-.57-1.5-.57-2.07,0Z"/>
            <path class="cls-3" d="M71.09,138.52h.01c.81,0,1.46.65,1.46,1.46v17.34c0,.81-.65,1.46-1.46,1.46h-.01c-.81,0-1.46-.65-1.46-1.46v-17.34c0-.81.65-1.46,1.46-1.46Z" transform="translate(-93.18 135.84) rotate(-59.98)"/>
            <path class="cls-3" d="M53.16,165.69h0c-.21.78.26,1.59,1.03,1.8l16.75,4.49c.77.21,1.58-.26,1.79-1.03h0c.21-.78-.26-1.59-1.03-1.8l-16.75-4.49c-.77-.21-1.58.26-1.79,1.03Z"/>
            <rect class="cls-3" x="50.04" y="187.97" width="20.26" height="2.93" rx="1.46" ry="1.46"/>
            <path class="cls-3" d="M54.28,209.08h17.34c.81,0,1.46.65,1.46,1.46h0c0,.82-.65,1.47-1.46,1.47h-17.34c-.81,0-1.46-.65-1.46-1.46h0c0-.82.65-1.47,1.46-1.47Z" transform="translate(-52.37 23.48) rotate(-15.01)"/>
            <path class="cls-3" d="M62.32,235.27h0c.4.7,1.3.94,2,.54l15.01-8.67c.69-.4.93-1.3.53-2h0c-.4-.7-1.3-.94-2-.54l-15.01,8.67c-.69.4-.93,1.3-.53,2Z"/>
            <path class="cls-3" d="M95.88,268.84h0c.69.41,1.6.16,2-.53l8.67-15.01c.4-.69.16-1.6-.53-2h0c-.69-.41-1.6-.16-2,.53l-8.67,15.01c-.4.69-.16,1.6.53,2Z"/>
            <path class="cls-3" d="M111.95,266.75h17.34c.81,0,1.46.65,1.46,1.46h0c0,.82-.65,1.47-1.46,1.47h-17.34c-.81,0-1.46-.65-1.46-1.46h0c0-.82.65-1.47,1.46-1.47Z" transform="translate(-169.65 315.48) rotate(-75.03)"/>
            <rect class="cls-3" x="140.27" y="260.87" width="2.93" height="20.26" rx="1.46" ry="1.46"/>
            <path class="cls-3" d="M165.46,278h0c.77-.21,1.24-1.02,1.03-1.79l-4.49-16.75c-.21-.77-1.02-1.24-1.79-1.03h0c-.77.21-1.24,1.02-1.03,1.79l4.49,16.75c.21.77,1.02,1.24,1.79,1.03Z"/>
            <path class="cls-3" d="M187.57,268.84h0c.69-.41.93-1.31.53-2l-8.67-15.01c-.4-.69-1.3-.93-2-.53h0c-.69.41-.93,1.31-.53,2l8.67,15.01c.4.69,1.3.93,2,.53Z"/>
            <path class="cls-3" d="M221.14,235.28h0c.4-.7.16-1.6-.53-2l-15.01-8.67c-.69-.4-1.6-.16-2,.53h0c-.4.7-.16,1.6.53,2l15.01,8.67c.69.4,1.6.16,2-.53Z"/>
            <path class="cls-3" d="M230.3,213.17h0c.21-.78-.26-1.59-1.03-1.8l-16.75-4.49c-.77-.21-1.58.26-1.79,1.03h0c-.21.78.26,1.59,1.03,1.8l16.75,4.49c.77.21,1.58-.26,1.79-1.03Z"/>
            <rect class="cls-3" x="213.17" y="187.97" width="20.26" height="2.93" rx="1.46" ry="1.46"/>
            <path class="cls-3" d="M230.3,165.7h0c-.21-.78-1.02-1.25-1.79-1.04l-16.75,4.49c-.77.21-1.24,1.02-1.03,1.79h0c.21.78,1.02,1.25,1.79,1.04l16.75-4.49c.77-.21,1.24-1.02,1.03-1.79Z"/>
            <path class="cls-3" d="M203.7,147.18h17.34c.81,0,1.46.65,1.46,1.46h0c0,.82-.65,1.47-1.46,1.47h-17.34c-.81,0-1.46-.65-1.46-1.46h0c0-.82.65-1.47,1.46-1.47Z" transform="translate(-45.9 126.44) rotate(-30.08)"/>
            <path class="cls-3" d="M206.57,124.6h0c-.57-.57-1.5-.57-2.07,0l-12.26,12.26c-.57.57-.57,1.5,0,2.07h0c.57.57,1.5.57,2.07,0l12.26-12.26c.57-.57.57-1.5,0-2.07Z"/>
            <path class="cls-3" d="M173.85,117.33h17.34c.81,0,1.46.65,1.46,1.46h0c0,.82-.65,1.47-1.46,1.47h-17.34c-.81,0-1.46-.65-1.46-1.46h0c0-.82.65-1.47,1.46-1.47Z" transform="translate(-11.65 217.4) rotate(-59.98)"/>
          </g>
        </g>
        <g>
          <path class="cls-5" d="M169.79,205.84l1.62-28.27c.12-2.17,1.31-4.02,3.04-5.09-1.71-6.02-4.56-10.89-8.24-14.66-2.38-.9-4.58-2.48-5.62-3.31-.95-.74-1.82-1.54-2.59-2.35-1.98-.11-4.33-.69-6.71-1.67-1.29-.53-2.49-1.17-3.57-1.84-.55-.08-1.11-.15-1.68-.21-1.34.24-2.78.41-4.3.41s-2.96-.16-4.3-.41c-.57.06-1.12.13-1.68.21-1.09.68-2.28,1.31-3.58,1.84-2.37.98-4.72,1.57-6.7,1.67-.78.81-1.65,1.61-2.6,2.35-1.04.83-3.24,2.42-5.63,3.32-3.68,3.77-6.52,8.64-8.23,14.66,1.72,1.08,2.91,2.93,3.04,5.09l1.62,28.27c.12,2.07-.77,3.95-2.22,5.21,5.9,16.76,17.24,30.29,30.28,30.29s24.37-13.53,30.28-30.28c-1.45-1.27-2.34-3.15-2.22-5.21Z"/>
          <path class="cls-5" d="M186.96,181.93c-.45-24.59-20.52-44.4-45.22-44.4s-44.78,19.81-45.23,44.4c-1.85,2.71-2.9,6.6-2.65,10.87.44,7.81,5.03,13.89,10.23,13.6.09,1.73,1.58,3.05,3.32,2.95,1.73-.1,3.06-1.58,2.96-3.32l-1.62-28.26c-.1-1.73-1.59-3.06-3.32-2.96-1.73.1-3.06,1.58-2.96,3.32-.13,0-.26.04-.39.05,1.03-9,5.06-17.09,11.06-23.25,1.15.81,4.44-.45,7.68-3.03,1.29-1.02,2.38-2.09,3.2-3.1,1.58.22,4.15-.26,6.89-1.39,1.99-.82,3.69-1.83,4.85-2.81,1.47.55,3.58.91,5.98.91s4.51-.36,5.97-.91c1.15.98,2.85,1.99,4.85,2.81,2.74,1.13,5.32,1.6,6.9,1.39.81,1.01,1.91,2.08,3.2,3.1,3.24,2.57,6.53,3.83,7.68,3.03,6,6.16,10.02,14.25,11.06,23.25-.13-.01-.25-.04-.38-.05.1-1.73-1.23-3.22-2.96-3.32-1.74-.1-3.23,1.22-3.32,2.96l-1.62,28.26c-.1,1.73,1.22,3.22,2.96,3.32,1.73.1,3.22-1.23,3.32-2.95,5.2.29,9.78-5.79,10.22-13.6.25-4.27-.8-8.16-2.64-10.86Z"/>
        </g>
      </g>
      <text class="cls-7" transform="translate(115.52 337.72)"><tspan x="0" y="0">EAR</tspan><tspan x="-58.57" y="33.58">PR</tspan><tspan class="cls-10" x="-22.67" y="33.58">O</tspan><tspan x="-4.51" y="33.58">TE</tspan><tspan class="cls-9" x="28.54" y="33.58">C</tspan><tspan x="46.46" y="33.58">TION</tspan><tspan x="-76.57" y="67.16">MUS</tspan><tspan class="cls-8" x="-16.44" y="67.16">T</tspan><tspan x=".06" y="67.16" xml:space="preserve"> BE WORN</tspan></text>
    </g>
  </g>
</svg>