<?xml version="1.0" encoding="UTF-8"?>
<svg id="Layer_2" data-name="Layer 2" xmlns="http://www.w3.org/2000/svg" viewBox="0 0 304.48 466.67">
  <defs>
    <style>
      .cls-1 {
        letter-spacing: -.03em;
      }

      .cls-2 {
        fill: #000;
      }

      .cls-2, .cls-3, .cls-4, .cls-5, .cls-6, .cls-7 {
        stroke-width: 0px;
      }

      .cls-3, .cls-8 {
        fill: #c28840;
      }

      .cls-9 {
        letter-spacing: -.01em;
      }

      .cls-10 {
        letter-spacing: -.03em;
      }

      .cls-11 {
        letter-spacing: -.01em;
      }

      .cls-4 {
        fill: #f6f6f6;
      }

      .cls-5 {
        fill: #2d2d2d;
      }

      .cls-12 {
        letter-spacing: 0em;
      }

      .cls-6 {
        fill: #fff;
      }

      .cls-7 {
        fill: #0b8530;
      }

      .cls-8 {
        font-family: Roboto-Bold, Roboto;
        font-size: 27.98px;
        font-weight: 700;
      }

      .cls-13 {
        letter-spacing: -.01em;
      }

      .cls-14 {
        letter-spacing: 0em;
      }
    </style>
  </defs>
  <g id="Layer_1-2" data-name="Layer 1">
    <g>
      <rect class="cls-6" width="304.48" height="466.67"/>
      <g>
        <rect class="cls-2" x="10.5" y="16.64" width="283.46" height="435.99" rx="22.38" ry="22.38"/>
        <rect class="cls-6" x="10.91" y="17.05" width="282.66" height="435.18" rx="21.97" ry="21.97"/>
        <path class="cls-7" d="M271.59,28.31H32.88c-5.92,0-10.71,4.8-10.71,10.71v56.63h260.13v-56.63c0-5.91-4.8-10.71-10.71-10.71Z"/>
        <path class="cls-5" d="M271.59,25.49H32.88c-7.46,0-13.53,6.07-13.53,13.53v391.24c0,7.46,6.07,13.53,13.53,13.53h238.71c7.46,0,13.53-6.07,13.53-13.53V39.02c0-7.46-6.07-13.53-13.53-13.53ZM24.98,39.02c0-4.08,3.11-7.45,7.09-7.85.27-.03.53-.04.81-.04h238.71c.27,0,.54.01.81.04,3.98.41,7.09,3.77,7.09,7.85v53.82H24.98v-53.82ZM279.49,98.47v215.49H24.98V98.47h254.5Z"/>
        <g>
          <path class="cls-6" d="M49.01,57.33c-1.97-1.37-3.37-2.43-3.37-3.66,0-1.35,1.26-2.26,3.15-2.26,1.84-.05,3.55.66,4.46,1.27l.93.62,2.43-7.98-.72-.46c-1.82-1.16-4.01-1.73-6.68-1.73-6.68,0-11.34,4.83-11.34,11.75,0,5.11,3.4,7.94,5.96,9.63,2.61,1.72,3.09,2.58,3.09,3.65,0,2.09-2.07,2.65-3.29,2.65-2.02,0-4.13-.7-5.78-1.92l-.92-.68-2.56,7.82.59.52c1.75,1.55,4.78,2.5,8.13,2.54,7,0,11.7-4.88,11.7-12.14,0-4.03-1.88-7.18-5.76-9.63Z"/>
          <path class="cls-6" d="M66.53,43.62l-13.8,34.94h8.12l3.11-8.48h6.19l.51,8.48h7.87l-3.32-34.94h-8.67ZM69.75,62.48h-3.29l2.03-5.42c.24-.64.48-1.34.72-2.07.03.6.06,1.16.08,1.66l.46,5.84Z"/>
          <polygon class="cls-6" points="90.92 51.84 100.75 51.84 102.06 43.62 84.64 43.62 79.26 78.56 86.79 78.56 88.8 65.37 98 65.37 99.31 57.24 90.06 57.24 90.92 51.84"/>
          <polygon class="cls-6" points="121.01 51.84 122.32 43.62 104.74 43.62 99.36 78.56 117.52 78.56 118.77 70.33 108.19 70.33 109.06 64.69 118.45 64.69 119.76 56.56 110.28 56.56 111.02 51.84 121.01 51.84"/>
          <path class="cls-6" d="M155.69,52.43c-.59,1.27-1.09,2.38-1.56,3.41-.16-.89-.34-1.88-.57-3.07l-1.87-9.15h-28.77l-1.35,8.37h7.01l-4.09,26.57h7.54l4.09-26.57h7.08l.98-6.37,4.98,18.55-2.21,14.39h7.54l2.15-14.15,12.4-20.79h-9.11l-4.25,8.81Z"/>
          <polygon class="cls-6" points="182.23 57.24 183.09 51.84 192.93 51.84 194.23 43.62 176.82 43.62 171.43 78.56 178.97 78.56 180.98 65.37 190.17 65.37 191.48 57.24 182.23 57.24"/>
          <polygon class="cls-6" points="196.8 43.62 191.42 78.56 198.95 78.56 204.34 43.62 196.8 43.62"/>
          <path class="cls-6" d="M223.1,71.23c-.09-1.07-.17-2.18-.28-3.23-.2-2.55-.75-4.41-1.66-5.64,3.3-1.91,5.17-5.33,5.17-9.62,0-3.12-1.2-5.72-3.39-7.32-1.74-1.37-4.25-2.06-7.44-2.06-2.79,0-5.52.32-7.3.86l-.57.17-5.28,34.16h7.46l1.97-12.9h.97c1.41,0,2.44.3,2.7,4.14.14,2.41.43,6.66.79,7.99l.21.77h7.88l-.55-1.58c-.28-.81-.49-3.43-.68-5.75ZM214.05,51.2c.38-.06.85-.09,1.42-.09,1.43,0,3.13.47,3.13,2.7,0,2.56-1.81,4.35-4.39,4.35h-1.21l1.06-6.96Z"/>
          <path class="cls-6" d="M238.93,51.41c1.84-.05,3.55.66,4.46,1.27l.93.62,2.43-7.98-.72-.46c-1.82-1.16-4.01-1.73-6.68-1.73-6.68,0-11.34,4.83-11.34,11.75,0,5.11,3.4,7.94,5.96,9.63,2.61,1.72,3.09,2.58,3.09,3.65,0,2.09-2.07,2.65-3.29,2.65-2.02,0-4.13-.7-5.78-1.92l-.92-.68-2.56,7.82.59.52c1.75,1.55,4.78,2.5,8.13,2.54,7,0,11.7-4.88,11.7-12.14,0-4.03-1.88-7.18-5.76-9.63-1.97-1.37-3.37-2.43-3.37-3.66,0-1.35,1.26-2.26,3.15-2.26Z"/>
          <polygon class="cls-6" points="248.54 43.62 247.19 51.99 254.2 51.99 250.11 78.56 257.65 78.56 261.74 51.99 268.82 51.99 270.12 43.62 248.54 43.62"/>
        </g>
      </g>
      <g>
        <circle class="cls-3" cx="152.24" cy="206.08" r="94.89" transform="translate(-101.13 168) rotate(-45)"/>
        <g>
          <path class="cls-4" d="M106.39,126.66h0c-.69.4-.93,1.31-.53,2l8.67,15.01c.4.69,1.3.93,2,.53h0c.69-.4.93-1.31.53-2l-8.67-15.01c-.4-.69-1.3-.93-2-.53Z"/>
          <path class="cls-4" d="M87.4,141.24h0c-.57.57-.57,1.51,0,2.07l12.26,12.26c.57.57,1.5.57,2.07,0h0c.57-.57.57-1.51,0-2.07l-12.26-12.26c-.57-.57-1.5-.57-2.07,0Z"/>
          <path class="cls-4" d="M81.59,155.16h.01c.81,0,1.46.65,1.46,1.46v17.34c0,.81-.65,1.46-1.46,1.46h-.01c-.81,0-1.46-.65-1.46-1.46v-17.34c0-.81.65-1.46,1.46-1.46Z" transform="translate(-102.35 153.25) rotate(-59.98)"/>
          <path class="cls-4" d="M63.67,182.34h0c-.21.78.26,1.59,1.03,1.8l16.75,4.49c.77.21,1.58-.26,1.79-1.03h0c.21-.78-.26-1.59-1.03-1.8l-16.75-4.49c-.77-.21-1.58.26-1.79,1.03Z"/>
          <rect class="cls-4" x="60.54" y="204.61" width="20.26" height="2.93" rx="1.46" ry="1.46"/>
          <path class="cls-4" d="M64.78,225.72h17.34c.81,0,1.46.65,1.46,1.46h0c0,.82-.65,1.47-1.46,1.47h-17.34c-.81,0-1.46-.65-1.46-1.46h0c0-.82.65-1.47,1.46-1.47Z" transform="translate(-56.32 26.77) rotate(-15.01)"/>
          <path class="cls-4" d="M72.82,251.92h0c.4.7,1.3.94,2,.54l15.01-8.67c.69-.4.93-1.3.53-2h0c-.4-.7-1.3-.94-2-.54l-15.01,8.67c-.69.4-.93,1.3-.53,2Z"/>
          <path class="cls-4" d="M106.38,285.48h0c.69.41,1.6.16,2-.53l8.67-15.01c.4-.69.16-1.6-.53-2h0c-.69-.41-1.6-.16-2,.53l-8.67,15.01c-.4.69-.16,1.6.53,2Z"/>
          <path class="cls-4" d="M122.46,283.4h17.34c.81,0,1.46.65,1.46,1.46h0c0,.82-.65,1.47-1.46,1.47h-17.34c-.81,0-1.46-.65-1.46-1.46h0c0-.82.65-1.47,1.46-1.47Z" transform="translate(-177.94 337.97) rotate(-75.03)"/>
          <rect class="cls-4" x="150.77" y="277.51" width="2.93" height="20.26" rx="1.46" ry="1.46"/>
          <path class="cls-4" d="M175.96,294.65h0c.77-.21,1.24-1.02,1.03-1.79l-4.49-16.75c-.21-.77-1.02-1.24-1.79-1.03h0c-.77.21-1.24,1.02-1.03,1.79l4.49,16.75c.21.77,1.02,1.24,1.79,1.03Z"/>
          <path class="cls-4" d="M198.08,285.49h0c.69-.41.93-1.31.53-2l-8.67-15.01c-.4-.69-1.3-.93-2-.53h0c-.69.41-.93,1.31-.53,2l8.67,15.01c.4.69,1.3.93,2,.53Z"/>
          <path class="cls-4" d="M231.64,251.93h0c.4-.7.16-1.6-.53-2l-15.01-8.67c-.69-.4-1.6-.16-2,.53h0c-.4.7-.16,1.6.53,2l15.01,8.67c.69.4,1.6.16,2-.53Z"/>
          <path class="cls-4" d="M240.8,229.81h0c.21-.78-.26-1.59-1.03-1.8l-16.75-4.49c-.77-.21-1.58.26-1.79,1.03h0c-.21.78.26,1.59,1.03,1.8l16.75,4.49c.77.21,1.58-.26,1.79-1.03Z"/>
          <rect class="cls-4" x="223.67" y="204.61" width="20.26" height="2.93" rx="1.46" ry="1.46"/>
          <path class="cls-4" d="M240.81,182.35h0c-.21-.78-1.02-1.25-1.79-1.04l-16.75,4.49c-.77.21-1.24,1.02-1.03,1.79h0c.21.78,1.02,1.25,1.79,1.04l16.75-4.49c.77-.21,1.24-1.02,1.03-1.79Z"/>
          <path class="cls-4" d="M214.2,163.83h17.33c.81,0,1.46.66,1.46,1.46h0c0,.81-.65,1.47-1.46,1.47h-17.34c-.81,0-1.46-.65-1.46-1.46h0c0-.82.65-1.47,1.46-1.47Z" transform="translate(-52.83 133.94) rotate(-30.08)"/>
          <path class="cls-4" d="M217.08,141.24h0c-.57-.57-1.5-.57-2.07,0l-12.26,12.26c-.57.57-.57,1.5,0,2.07h0c.57.57,1.5.57,2.07,0l12.26-12.26c.57-.57.57-1.5,0-2.07Z"/>
          <path class="cls-4" d="M184.35,133.97h17.34c.81,0,1.46.65,1.46,1.46h0c0,.82-.65,1.47-1.46,1.47h-17.34c-.81,0-1.46-.65-1.46-1.46h0c0-.82.65-1.47,1.46-1.47Z" transform="translate(-20.82 234.81) rotate(-59.98)"/>
        </g>
        <g>
          <path class="cls-6" d="M129.78,141.41l-15.09,5.14s3.95,23.93-11.75,43.39v74.4l48.14-.06.03-6.41h-45.83v-9.76h45.72l.03-9.29h-45.77v-9.7h12.77v-80.31l9.67-3.65v83.79h23.32v-45.43l-21.25-42.12Z"/>
          <path class="cls-6" d="M174.69,141.41l15.09,5.14s-3.95,23.93,11.74,43.39v74.4l-48.14-.06-.03-6.41h45.83v-9.76h-45.72l-.03-9.29h45.76v-9.7h-12.77v-80.31l-9.67-3.65v83.79h-23.33v-45.43l21.25-42.12Z"/>
          <path class="cls-6" d="M137.11,150.04l15.36,30.84,13.49-30.95s-14.7,4.75-28.85.11Z"/>
        </g>
      </g>
      <text class="cls-8" transform="translate(44.11 353.27)"><tspan x="0" y="0">HIGH VISIBIL</tspan><tspan class="cls-9" x="166.71" y="0">I</tspan><tspan class="cls-12" x="174.47" y="0">T</tspan><tspan x="192" y="0">Y </tspan><tspan class="cls-11" x="56.91" y="33.58">J</tspan><tspan class="cls-13" x="72.24" y="33.58">A</tspan><tspan x="90.78" y="33.58">CK</tspan><tspan class="cls-14" x="126.85" y="33.58">E</tspan><tspan class="cls-1" x="142.86" y="33.58">T</tspan><tspan x="5.35" y="67.16">MUS</tspan><tspan class="cls-10" x="65.48" y="67.16">T</tspan><tspan x="81.97" y="67.16" xml:space="preserve"> BE WORN</tspan></text>
    </g>
  </g>
</svg>