<?xml version="1.0" encoding="UTF-8"?>
<svg id="Layer_2" data-name="Layer 2" xmlns="http://www.w3.org/2000/svg" viewBox="0 0 283.46 435.99">
  <defs>
    <style>
      .cls-1 {
        letter-spacing: -.03em;
      }

      .cls-2 {
        fill: #000;
      }

      .cls-2, .cls-3, .cls-4, .cls-5, .cls-6, .cls-7 {
        stroke-width: 0px;
      }

      .cls-8 {
        letter-spacing: 0em;
      }

      .cls-3, .cls-9 {
        fill: #c28840;
      }

      .cls-10 {
        letter-spacing: -.03em;
      }

      .cls-4 {
        fill: #f6f6f6;
      }

      .cls-5 {
        fill: #2d2d2d;
      }

      .cls-11 {
        letter-spacing: 0em;
      }

      .cls-6 {
        fill: #fff;
      }

      .cls-7 {
        fill: #0b8530;
      }

      .cls-9 {
        font-family: Roboto-Bold, Roboto;
        font-size: 27.98px;
        font-weight: 700;
      }

      .cls-12 {
        letter-spacing: 0em;
      }
    </style>
  </defs>
  <g id="Layer_1-2" data-name="Layer 1">
    <g>
      <g>
        <rect class="cls-2" width="283.46" height="435.99" rx="22.38" ry="22.38"/>
        <rect class="cls-6" x=".4" y=".4" width="282.66" height="435.18" rx="21.97" ry="21.97"/>
        <path class="cls-7" d="M261.09,11.67H22.38c-5.92,0-10.71,4.8-10.71,10.71v56.63h260.13V22.38c0-5.91-4.8-10.71-10.71-10.71Z"/>
        <path class="cls-5" d="M261.09,8.85H22.38c-7.46,0-13.53,6.07-13.53,13.53v391.24c0,7.46,6.07,13.53,13.53,13.53h238.71c7.46,0,13.53-6.07,13.53-13.53V22.38c0-7.46-6.07-13.53-13.53-13.53ZM14.48,22.38c0-4.08,3.11-7.45,7.09-7.85.27-.03.53-.04.81-.04h238.71c.27,0,.54.01.81.04,3.98.41,7.09,3.77,7.09,7.85v53.82H14.48V22.38ZM268.98,81.82v215.49H14.48V81.82h254.5Z"/>
        <g>
          <path class="cls-6" d="M38.51,40.68c-1.97-1.37-3.37-2.43-3.37-3.66,0-1.35,1.26-2.26,3.15-2.26,1.84-.05,3.55.66,4.46,1.27l.93.62,2.43-7.98-.72-.46c-1.82-1.16-4.01-1.73-6.68-1.73-6.68,0-11.34,4.83-11.34,11.75,0,5.11,3.4,7.94,5.96,9.63,2.61,1.72,3.09,2.58,3.09,3.65,0,2.09-2.07,2.65-3.29,2.65-2.02,0-4.13-.7-5.78-1.92l-.92-.68-2.56,7.82.59.52c1.75,1.55,4.78,2.5,8.13,2.54,7,0,11.7-4.88,11.7-12.14,0-4.03-1.88-7.18-5.76-9.63Z"/>
          <path class="cls-6" d="M56.03,26.97l-13.8,34.94h8.12l3.11-8.48h6.19l.51,8.48h7.87l-3.32-34.94h-8.67ZM59.25,45.83h-3.29l2.03-5.42c.24-.64.48-1.34.72-2.07.03.6.06,1.16.08,1.66l.46,5.84Z"/>
          <polygon class="cls-6" points="80.41 35.2 90.25 35.2 91.55 26.97 74.14 26.97 68.75 61.91 76.29 61.91 78.3 48.73 87.49 48.73 88.8 40.59 79.56 40.59 80.41 35.2"/>
          <polygon class="cls-6" points="110.51 35.2 111.81 26.97 94.24 26.97 88.86 61.91 107.02 61.91 108.26 53.68 97.69 53.68 98.56 48.05 107.95 48.05 109.26 39.92 99.77 39.92 100.52 35.2 110.51 35.2"/>
          <path class="cls-6" d="M145.19,35.78c-.59,1.27-1.09,2.38-1.56,3.41-.16-.89-.34-1.88-.57-3.07l-1.87-9.15h-28.77l-1.35,8.37h7.01l-4.09,26.57h7.54l4.09-26.57h7.08l.98-6.37,4.98,18.55-2.21,14.39h7.54l2.15-14.15,12.4-20.79h-9.11l-4.25,8.81Z"/>
          <polygon class="cls-6" points="171.73 40.59 172.59 35.2 182.43 35.2 183.73 26.97 166.31 26.97 160.93 61.91 168.47 61.91 170.47 48.73 179.67 48.73 180.98 40.59 171.73 40.59"/>
          <polygon class="cls-6" points="186.3 26.97 180.91 61.91 188.45 61.91 193.83 26.97 186.3 26.97"/>
          <path class="cls-6" d="M212.6,54.59c-.09-1.07-.17-2.18-.28-3.23-.2-2.55-.75-4.41-1.66-5.64,3.3-1.91,5.17-5.33,5.17-9.62,0-3.12-1.2-5.72-3.39-7.32-1.74-1.37-4.25-2.06-7.44-2.06-2.79,0-5.52.32-7.3.86l-.57.17-5.28,34.16h7.46l1.97-12.9h.97c1.41,0,2.44.3,2.7,4.14.14,2.41.43,6.66.79,7.99l.21.77h7.88l-.55-1.58c-.28-.81-.49-3.43-.68-5.75ZM203.54,34.56c.38-.06.85-.09,1.42-.09,1.43,0,3.13.47,3.13,2.7,0,2.56-1.81,4.35-4.39,4.35h-1.21l1.06-6.96Z"/>
          <path class="cls-6" d="M228.42,34.76c1.84-.05,3.55.66,4.46,1.27l.93.62,2.43-7.98-.72-.46c-1.82-1.16-4.01-1.73-6.68-1.73-6.68,0-11.34,4.83-11.34,11.75,0,5.11,3.4,7.94,5.96,9.63,2.61,1.72,3.09,2.58,3.09,3.65,0,2.09-2.07,2.65-3.29,2.65-2.02,0-4.13-.7-5.78-1.92l-.92-.68-2.56,7.82.59.52c1.75,1.55,4.78,2.5,8.13,2.54,7,0,11.7-4.88,11.7-12.14,0-4.03-1.88-7.18-5.76-9.63-1.97-1.37-3.37-2.43-3.37-3.66,0-1.35,1.26-2.26,3.15-2.26Z"/>
          <polygon class="cls-6" points="238.04 26.97 236.69 35.34 243.7 35.34 239.61 61.91 247.15 61.91 251.24 35.34 258.32 35.34 259.61 26.97 238.04 26.97"/>
        </g>
      </g>
      <g>
        <circle class="cls-3" cx="141.73" cy="189.43" r="94.89" transform="translate(-92.44 155.7) rotate(-45)"/>
        <g>
          <path class="cls-4" d="M95.89,110.02h0c-.69.4-.93,1.31-.53,2l8.67,15.01c.4.69,1.3.93,2,.53h0c.69-.4.93-1.31.53-2l-8.67-15.01c-.4-.69-1.3-.93-2-.53Z"/>
          <path class="cls-4" d="M76.9,124.59h0c-.57.57-.57,1.51,0,2.07l12.26,12.26c.57.57,1.5.57,2.07,0h0c.57-.57.57-1.51,0-2.07l-12.26-12.26c-.57-.57-1.5-.57-2.07,0Z"/>
          <path class="cls-4" d="M71.09,138.52h.01c.81,0,1.46.65,1.46,1.46v17.34c0,.81-.65,1.46-1.46,1.46h-.01c-.81,0-1.46-.65-1.46-1.46v-17.34c0-.81.65-1.46,1.46-1.46Z" transform="translate(-93.18 135.84) rotate(-59.98)"/>
          <path class="cls-4" d="M53.16,165.69h0c-.21.78.26,1.59,1.03,1.8l16.75,4.49c.77.21,1.58-.26,1.79-1.03h0c.21-.78-.26-1.59-1.03-1.8l-16.75-4.49c-.77-.21-1.58.26-1.79,1.03Z"/>
          <rect class="cls-4" x="50.04" y="187.97" width="20.26" height="2.93" rx="1.46" ry="1.46"/>
          <path class="cls-4" d="M54.28,209.08h17.34c.81,0,1.46.65,1.46,1.46h0c0,.82-.65,1.47-1.46,1.47h-17.34c-.81,0-1.46-.65-1.46-1.46h0c0-.82.65-1.47,1.46-1.47Z" transform="translate(-52.37 23.48) rotate(-15.01)"/>
          <path class="cls-4" d="M62.32,235.27h0c.4.7,1.3.94,2,.54l15.01-8.67c.69-.4.93-1.3.53-2h0c-.4-.7-1.3-.94-2-.54l-15.01,8.67c-.69.4-.93,1.3-.53,2Z"/>
          <path class="cls-4" d="M95.88,268.84h0c.69.41,1.6.16,2-.53l8.67-15.01c.4-.69.16-1.6-.53-2h0c-.69-.41-1.6-.16-2,.53l-8.67,15.01c-.4.69-.16,1.6.53,2Z"/>
          <path class="cls-4" d="M111.95,266.75h17.34c.81,0,1.46.65,1.46,1.46h0c0,.82-.65,1.47-1.46,1.47h-17.34c-.81,0-1.46-.65-1.46-1.46h0c0-.82.65-1.47,1.46-1.47Z" transform="translate(-169.65 315.48) rotate(-75.03)"/>
          <rect class="cls-4" x="140.27" y="260.87" width="2.93" height="20.26" rx="1.46" ry="1.46"/>
          <path class="cls-4" d="M165.46,278h0c.77-.21,1.24-1.02,1.03-1.79l-4.49-16.75c-.21-.77-1.02-1.24-1.79-1.03h0c-.77.21-1.24,1.02-1.03,1.79l4.49,16.75c.21.77,1.02,1.24,1.79,1.03Z"/>
          <path class="cls-4" d="M187.57,268.84h0c.69-.41.93-1.31.53-2l-8.67-15.01c-.4-.69-1.3-.93-2-.53h0c-.69.41-.93,1.31-.53,2l8.67,15.01c.4.69,1.3.93,2,.53Z"/>
          <path class="cls-4" d="M221.14,235.28h0c.4-.7.16-1.6-.53-2l-15.01-8.67c-.69-.4-1.6-.16-2,.53h0c-.4.7-.16,1.6.53,2l15.01,8.67c.69.4,1.6.16,2-.53Z"/>
          <path class="cls-4" d="M230.3,213.17h0c.21-.78-.26-1.59-1.03-1.8l-16.75-4.49c-.77-.21-1.58.26-1.79,1.03h0c-.21.78.26,1.59,1.03,1.8l16.75,4.49c.77.21,1.58-.26,1.79-1.03Z"/>
          <rect class="cls-4" x="213.17" y="187.97" width="20.26" height="2.93" rx="1.46" ry="1.46"/>
          <path class="cls-4" d="M230.3,165.7h0c-.21-.78-1.02-1.25-1.79-1.04l-16.75,4.49c-.77.21-1.24,1.02-1.03,1.79h0c.21.78,1.02,1.25,1.79,1.04l16.75-4.49c.77-.21,1.24-1.02,1.03-1.79Z"/>
          <path class="cls-4" d="M203.7,147.18h17.33c.81,0,1.46.66,1.46,1.46h0c0,.81-.65,1.47-1.46,1.47h-17.34c-.81,0-1.46-.65-1.46-1.46h0c0-.82.65-1.47,1.46-1.47Z" transform="translate(-45.9 126.44) rotate(-30.08)"/>
          <path class="cls-4" d="M206.57,124.6h0c-.57-.57-1.5-.57-2.07,0l-12.26,12.26c-.57.57-.57,1.5,0,2.07h0c.57.57,1.5.57,2.07,0l12.26-12.26c.57-.57.57-1.5,0-2.07Z"/>
          <path class="cls-4" d="M173.85,117.33h17.34c.81,0,1.46.65,1.46,1.46h0c0,.82-.65,1.47-1.46,1.47h-17.34c-.81,0-1.46-.65-1.46-1.46h0c0-.82.65-1.47,1.46-1.47Z" transform="translate(-11.65 217.4) rotate(-59.98)"/>
        </g>
        <path class="cls-4" d="M141.73,126.77c-.86,0-1.73.02-2.59.07h0c-2.53.15-5.05.51-7.53,1.08h.02s-.02,0-.02,0c-2.69.62-5.33,1.5-7.87,2.63-1.83.81-2.23,3.78-2.18,5.53.32,10.48,3.11,24.24,5.13,39.99,0,0-6.53-16.54-9.92-37.95-11.51,7.97-19.99,21.06-21.26,35.98-.16,3.46-3.14,1.37-3.85,8.26-.34,3.3-.47,6.48-.36,9.72.07.71.26,1.28.55,1.72h4.9c.45,6.71,1.93,14.84,4.77,22.61l3.03,1.77c4.5,11.95,12.12,25.35,22.52,31.66h0c2.47,1.5,8.57,2.24,14.67,2.24s12.19-.75,14.66-2.24c10.4-6.31,18.02-19.71,22.53-31.66l3.03-1.77c2.84-7.77,4.31-15.9,4.77-22.61h4.9c.29-.44.48-1,.55-1.72.11-3.24-.02-6.42-.36-9.72-.71-6.89-3.69-4.8-3.85-8.26-1.28-14.91-9.75-28-21.26-35.98-3.39,21.39-9.91,37.91-9.92,37.95,2.02-15.75,4.81-29.52,5.13-39.99.05-1.75-.35-4.72-2.18-5.53-5.69-2.52-11.84-3.78-17.99-3.78h0ZM104.07,193.8c.64,0,1.31.1,1.63.73.62,1.08,1.4,2.4,2.49,2.4h67.11c1.09,0,1.86-1.32,2.48-2.4.32-.63.99-.73,1.62-.73h0c-.02.28-.03.55-.05.83-.48,5.4-1.66,11.65-3.39,16.85l-3.33,1.95c-2.34,9.08-10.25,25.31-19.33,30.17-2.08,1.12-6.82,1.67-11.56,1.67s-9.47-.56-11.56-1.67c-9.08-4.86-17-21.09-19.33-30.17l-3.33-1.95c-1.73-5.2-2.9-11.46-3.39-16.85-.02-.28-.04-.55-.05-.83h0Z"/>
      </g>
      <text class="cls-9" transform="translate(33.31 354.72)"><tspan x="0" y="0">SAF</tspan><tspan class="cls-8" x="51.36" y="0">E</tspan><tspan class="cls-11" x="67.37" y="0">T</tspan><tspan x="84.9" y="0">Y HELM</tspan><tspan class="cls-12" x="184.35" y="0">E</tspan><tspan class="cls-1" x="200.36" y="0">T</tspan><tspan x="5.64" y="33.58">MUS</tspan><tspan class="cls-10" x="65.78" y="33.58">T</tspan><tspan x="82.27" y="33.58" xml:space="preserve"> BE WORN</tspan></text>
    </g>
  </g>
</svg>