<?xml version="1.0" encoding="UTF-8"?>
<svg id="Layer_2" data-name="Layer 2" xmlns="http://www.w3.org/2000/svg" viewBox="0 0 1299.36 398.11">
  <defs>
    <style>
      .cls-1 {
        letter-spacing: .16em;
      }

      .cls-2 {
        letter-spacing: .56em;
      }

      .cls-3 {
        font-family: BalooBhai2-Medium, 'Baloo Bhai 2';
        font-size: 48.02px;
        font-variation-settings: 'wght' 500;
        font-weight: 500;
      }

      .cls-3, .cls-4 {
        fill: #fff;
      }

      .cls-5 {
        letter-spacing: .15em;
      }

      .cls-6 {
        letter-spacing: .16em;
      }

      .cls-7 {
        letter-spacing: .17em;
      }

      .cls-8 {
        letter-spacing: .16em;
      }

      .cls-9 {
        letter-spacing: .16em;
      }

      .cls-10 {
        letter-spacing: .15em;
      }

      .cls-11 {
        letter-spacing: .57em;
      }

      .cls-12 {
        letter-spacing: .15em;
      }

      .cls-13 {
        letter-spacing: .56em;
      }

      .cls-14 {
        font-family: Roboto-SemiBold, Roboto;
        font-size: 85.39px;
        font-weight: 600;
      }

      .cls-14, .cls-15 {
        fill: #2d2d2d;
      }

      .cls-15, .cls-4 {
        stroke-width: 0px;
      }

      .cls-16 {
        letter-spacing: .15em;
      }

      .cls-17 {
        letter-spacing: .16em;
      }

      .cls-18 {
        letter-spacing: .16em;
      }
    </style>
  </defs>
  <g id="Layer_1-2" data-name="Layer 1">
    <g>
      <g>
        <text class="cls-3" transform="translate(327.94 369.37)"><tspan class="cls-10" x="0" y="0">C</tspan><tspan class="cls-18" x="35.48" y="0">u</tspan><tspan class="cls-16" x="69.96" y="0">r</tspan><tspan class="cls-9" x="95.99" y="0">a</tspan><tspan class="cls-12" x="128.16" y="0">t</tspan><tspan class="cls-9" x="153.41" y="0">ed </tspan><tspan class="cls-1" x="238.02" y="0">M</tspan><tspan class="cls-9" x="283.15" y="0">e</tspan><tspan class="cls-7" x="316.09" y="0">t</tspan><tspan class="cls-9" x="342.17" y="0">a</tspan><tspan class="cls-17" x="374.34" y="0">ll</tspan><tspan class="cls-9" x="414.38" y="0">ic </tspan><tspan class="cls-6" x="482.18" y="0">E</tspan><tspan class="cls-9" x="515.74" y="0">xperti</tspan><tspan class="cls-8" x="686.25" y="0">s</tspan><tspan class="cls-18" x="716.16" y="0">e </tspan><tspan class="cls-5" x="766.39" y="0">P</tspan><tspan class="cls-9" x="800.96" y="0">artner</tspan></text>
        <g>
          <path class="cls-4" d="M452.56,103.54c-3.94-6.49-9.98-11.17-18.47-14.3l-9.83-3.62,9.18-5.04c5.82-3.2,9.93-7.34,12.59-12.64,2.72-5.44,4.1-12.34,4.1-20.51,0-5.42-.84-10.64-2.48-15.52-1.63-4.8-4.06-9.14-7.22-12.89-3.1-3.67-7.07-6.64-11.79-8.83-4.74-2.18-10.47-3.29-17.04-3.29h-70.56c-7.86,0-14.25,6.39-14.25,14.25v136.15c0,7.86,6.39,14.25,14.25,14.25h79.03c6.33,0,11.91-1.24,16.58-3.69,4.78-2.5,8.83-5.8,12.05-9.82,3.26-4.08,5.75-8.79,7.39-14.01,1.67-5.32,2.52-10.78,2.52-16.24,0-9.52-2.02-17.68-6.03-24.28ZM364.51,36.93h28.42c5.05,0,9.51.97,13.26,2.89,3.29,1.69,7.2,5.63,7.2,14.82,0,7.55-2.42,12.62-7.2,15.07-3.73,1.92-8.19,2.89-13.26,2.89h-28.42v-35.68ZM415.53,136.1c-4.04,3.62-8.8,5.45-14.14,5.45h-36.88v-41.91h38.83l.21.02c4.83.43,9.06,2.2,12.56,5.28,3.8,3.34,5.73,8.36,5.73,14.91,0,7.03-2.13,12.5-6.32,16.25Z"/>
          <polygon class="cls-4" points="596.54 172.31 596.54 111.33 529.75 111.33 529.75 172.31 501.16 172.31 492.02 163.17 492.02 7.65 520.61 7.65 529.75 16.79 529.75 81.31 596.54 81.31 596.54 16.79 605.69 7.65 634.28 7.65 634.28 163.17 625.14 172.31 596.54 172.31"/>
          <path class="cls-4" d="M773.69,8.34c-9.76,0-17.95.64-24.34,1.9-6.01,1.19-11.2,3.34-15.42,6.4-4.26,3.09-8.15,7.48-11.54,13.05-3.59,5.9-7.36,13.63-11.24,22.99l-49.78,120.32h39.91l11.7-28.87h65.49v28.87h37.23V8.34h-42.01ZM778.47,114.12h-53.19l15.87-38.94c4.71-11.5,9.3-19.89,14.05-25.63,5.14-6.21,11.12-9.88,17.77-10.88l5.5-.84v76.28Z"/>
          <path class="cls-4" d="M955.11,124.2l5.13-2.49c4.86-2.35,9.04-5.52,12.41-9.41,3.48-4.01,6.32-8.5,8.44-13.34,2.16-4.94,3.72-10.17,4.65-15.57.95-5.51,1.42-10.85,1.42-15.87,0-6.41-.8-13.31-2.38-20.5-1.53-6.97-4.13-13.42-7.72-19.15-3.51-5.59-8.24-10.32-14.08-14.07-5.66-3.63-13-5.47-21.81-5.47h-92.04v164.66h37.74v-47.04h28.6l9.35,15.19c3.72,5.83,7.34,11.08,10.73,15.6,3.19,4.25,6.71,7.82,10.47,10.6,3.69,2.74,7.86,4.84,12.39,6.25,4.58,1.42,10.09,2.14,16.38,2.14,3.45,0,7.19-.24,11.13-.71,1.78-.21,3.64-.46,5.57-.74l-36.36-50.09ZM940.77,89.24c-4.39,4.29-10.12,6.46-17.02,6.46h-33.68c-1.52,0-2.93.93-3.42,2.38-1.05,3.14-4.08,5.38-7.62,5.21-3.89-.18-7.08-3.38-7.26-7.27-.15-3.21,1.68-6,4.37-7.27,2.65-1.26,5.05-2.99,6.86-5.3l.06-.07c2.47-3.13,3.81-7.01,3.81-11v-34.01h36.88c7.4,0,13.31,2.53,17.57,7.53,4.12,4.84,6.12,12,6.12,21.88s-2.18,17.09-6.67,21.46Z"/>
          <path class="cls-4" d="M1128.45,51.46c-3.87-9.35-7.65-17.09-11.24-22.98-3.39-5.57-7.27-9.96-11.54-13.05-4.22-3.06-9.41-5.21-15.42-6.4-6.39-1.26-14.58-1.9-24.34-1.9h-42.01v164.67h37.23v-28.87h65.49l11.7,28.87h39.91l-49.78-120.33ZM1061.13,112.89V36.61l5.5.84c6.65,1.01,12.63,4.67,17.76,10.88,4.75,5.74,9.35,14.12,14.06,25.64l15.87,38.93h-53.19Z"/>
          <path class="cls-4" d="M1298.43,21.67c0,8.28-6.73,15.01-15.01,15.01h-33.77v87.79l-4.77,3.78,4.77,3.78h0s-4.77,3.79-4.77,3.79l4.77,3.78h0s-4.77,3.79-4.77,3.79l4.77,3.78h0s-4.77,3.79-4.77,3.79l4.77,3.78h0s-4.77,3.79-4.77,3.79l4.77,3.78h0s-4.77,3.79-4.77,3.79l4.77,3.78v1.44h-37.74l3.62-2.87,1.16-.92-4.77-3.78h0s0,0,0,0l4.77-3.78-4.77-3.78h0s0,0,0,0l4.77-3.78-4.77-3.78h0s0,0,0,0l4.77-3.78-4.77-3.78h0s0,0,0,0l4.77-3.78-4.77-3.78h0s0,0,0,0l4.77-3.78-4.77-3.78h0V36.68h-33.77c-8.28,0-15.01-6.73-15.01-15.01,0-.48.02-.96.07-1.43.32-3.47,1.83-6.69,4.33-9.18,2.84-2.83,6.61-4.39,10.62-4.39h47.01v6.38h11.46v-6.38h46.8c7.79,0,14.22,5.97,14.94,13.58.04.47.07.95.07,1.43Z"/>
        </g>
        <text class="cls-14" transform="translate(423.18 287.92)"><tspan class="cls-11" x="0" y="0">PRODU</tspan><tspan class="cls-2" x="522.95" y="0">C</tspan><tspan class="cls-13" x="626.24" y="0">T</tspan><tspan class="cls-11" x="726.73" y="0">S</tspan></text>
      </g>
      <g>
        <path class="cls-4" d="M260.82,171.09c0,17.58-3.46,34.66-10.27,50.78-6.57,15.54-15.97,29.48-27.92,41.44-11.96,11.96-25.9,21.35-41.44,27.92-11.91,5.04-24.36,8.24-37.14,9.57-4.51.47-9.06.71-13.64.71-14.64,0-28.93-2.4-42.6-7.13-2.75-.95-5.48-2-8.18-3.14-15.54-6.57-29.48-15.97-41.44-27.92-11.96-11.96-21.35-25.9-27.92-41.44C3.46,205.75,0,188.67,0,171.09V37.82C16.36,21.8,35.27,9.09,56.24,0v165.79c-.12,1.75-.19,3.52-.19,5.3,0,25.22,12.56,47.51,31.76,60.95,12.07,8.45,26.75,13.41,42.6,13.41,4.66,0,9.22-.43,13.64-1.25,34.55-6.4,60.72-36.7,60.72-73.11s-26.17-66.71-60.72-73.11c-4.42-.82-8.98-1.25-13.64-1.25-15.84,0-30.53,4.96-42.6,13.41v-62.32c13.67-4.74,27.96-7.13,42.6-7.13,17.58,0,34.66,3.46,50.78,10.27,15.54,6.57,29.48,15.97,41.44,27.92,11.96,11.96,21.35,25.9,27.92,41.44,6.82,16.11,10.27,33.2,10.27,50.78Z"/>
        <path class="cls-15" d="M144.05,97.98v113.47c-4.28,1.45-8.87,2.24-13.64,2.24-23.49,0-42.6-19.11-42.6-42.6v-60.95c12.07-8.45,26.75-13.41,42.6-13.41,4.66,0,9.22.43,13.64,1.25Z"/>
        <path class="cls-15" d="M144.05,332.69v9.18l-56.24,56.24v-70.52c13.81,3.77,28.07,5.66,42.6,5.66,4.57,0,9.12-.19,13.64-.57Z"/>
      </g>
    </g>
  </g>
</svg>