<?xml version="1.0" encoding="UTF-8"?>
<svg id="Layer_2" data-name="Layer 2" xmlns="http://www.w3.org/2000/svg" viewBox="0 0 3500.25 1072.35">
  <defs>
    <style>
      .cls-1 {
        font-family: Roboto-Regular, Roboto;
        font-size: 230px;
      }

      .cls-1, .cls-2 {
        fill: #2d2d2d;
      }

      .cls-3 {
        letter-spacing: .16em;
      }

      .cls-4 {
        letter-spacing: .16em;
      }

      .cls-5 {
        letter-spacing: .15em;
      }

      .cls-6 {
        fill: #c28840;
      }

      .cls-6, .cls-2 {
        stroke-width: 0px;
      }

      .cls-7 {
        letter-spacing: .15em;
      }

      .cls-8 {
        letter-spacing: .16em;
      }

      .cls-9 {
        letter-spacing: .57em;
      }

      .cls-10 {
        letter-spacing: .16em;
      }

      .cls-11 {
        letter-spacing: .16em;
      }

      .cls-12 {
        fill: #a88040;
        font-family: BalooBhai2-Medium, 'Baloo Bhai 2';
        font-size: 129.34px;
        font-variation-settings: 'wght' 500;
        font-weight: 500;
      }

      .cls-13 {
        letter-spacing: .56em;
      }

      .cls-14 {
        letter-spacing: .16em;
      }

      .cls-15 {
        letter-spacing: .15em;
      }

      .cls-16 {
        letter-spacing: .56em;
      }

      .cls-17 {
        letter-spacing: .16em;
      }
    </style>
  </defs>
  <g id="Layer_1-2" data-name="Layer 1">
    <g>
      <g>
        <text class="cls-12" transform="translate(883.63 994.76)"><tspan class="cls-8" x="0" y="0">C</tspan><tspan class="cls-10" x="95.58" y="0">u</tspan><tspan class="cls-7" x="188.45" y="0">r</tspan><tspan class="cls-10" x="258.55" y="0">a</tspan><tspan class="cls-15" x="345.21" y="0">t</tspan><tspan class="cls-10" x="413.24" y="0">ed </tspan><tspan class="cls-3" x="641.13" y="0">M</tspan><tspan class="cls-10" x="762.71" y="0">e</tspan><tspan class="cls-11" x="851.43" y="0">t</tspan><tspan class="cls-10" x="921.66" y="0">a</tspan><tspan class="cls-4" x="1008.31" y="0">ll</tspan><tspan class="cls-10" x="1116.18" y="0">ic </tspan><tspan class="cls-17" x="1298.8" y="0">E</tspan><tspan class="cls-10" x="1389.21" y="0">xperti</tspan><tspan class="cls-11" x="1848.48" y="0">s</tspan><tspan class="cls-14" x="1929.06" y="0">e </tspan><tspan class="cls-5" x="2064.34" y="0">P</tspan><tspan class="cls-14" x="2157.47" y="0">artner</tspan></text>
        <g>
          <path class="cls-6" d="M1219.02,278.89c-10.61-17.48-26.88-30.09-49.76-38.51l-26.47-9.75,24.72-13.58c15.67-8.62,26.76-19.76,33.91-34.04,7.33-14.66,11.04-33.25,11.04-55.25,0-14.6-2.25-28.66-6.69-41.79-4.39-12.94-10.93-24.62-19.44-34.72-8.35-9.89-19.04-17.89-31.76-23.77-12.76-5.88-28.2-8.86-45.9-8.86h-190.07c-21.17,0-38.4,17.22-38.4,38.4v366.74c0,21.17,17.22,38.4,38.4,38.4h212.86c17.04,0,32.07-3.33,44.65-9.93,12.88-6.73,23.8-15.63,32.45-26.46,8.79-10.99,15.49-23.68,19.9-37.73,4.5-14.33,6.78-29.05,6.78-43.74,0-25.64-5.45-47.63-16.23-65.4ZM981.86,99.47h76.55c13.61,0,25.62,2.62,35.71,7.8,8.85,4.55,19.38,15.17,19.38,39.93,0,20.34-6.52,34-19.38,40.6-10.06,5.17-22.07,7.8-35.71,7.8h-76.55v-96.12ZM1119.28,366.61c-10.88,9.74-23.69,14.68-38.08,14.68h-99.34v-112.88h104.59l.57.05c13.02,1.14,24.4,5.92,33.84,14.21,10.24,9,15.44,22.51,15.44,40.16,0,18.93-5.72,33.66-17.02,43.77Z"/>
          <polygon class="cls-6" points="1606.86 464.13 1606.86 299.89 1426.95 299.89 1426.95 464.13 1349.92 464.13 1325.3 439.51 1325.3 20.59 1402.32 20.59 1426.95 45.22 1426.95 219.03 1606.86 219.03 1606.86 45.22 1631.48 20.59 1708.5 20.59 1708.5 439.51 1683.88 464.13 1606.86 464.13"/>
          <path class="cls-6" d="M2084.02,22.47c-26.29,0-48.34,1.72-65.55,5.12-16.19,3.2-30.18,9-41.55,17.24-11.49,8.32-21.94,20.14-31.08,35.14-9.66,15.89-19.84,36.73-30.27,61.92l-134.1,324.11h107.51l31.5-77.76h176.4v77.76h100.3V22.47h-113.16ZM2096.88,307.39h-143.29l42.76-104.89c12.68-30.99,25.06-53.58,37.86-69.03,13.85-16.74,29.96-26.6,47.86-29.32l14.81-2.25v205.48Z"/>
          <path class="cls-6" d="M2572.69,334.55l13.83-6.7c13.08-6.33,24.34-14.86,33.43-25.34,9.36-10.79,17.02-22.88,22.73-35.94,5.81-13.3,10.02-27.4,12.52-41.93,2.55-14.84,3.83-29.23,3.83-42.75,0-17.28-2.15-35.85-6.41-55.22-4.13-18.78-11.13-36.15-20.79-51.57-9.44-15.06-22.2-27.81-37.93-37.9-15.26-9.78-35.03-14.73-58.76-14.73h-247.92v443.53h101.65v-126.7h77.03l25.17,40.91c10.03,15.71,19.76,29.84,28.89,42.01,8.59,11.46,18.07,21.07,28.2,28.56,9.94,7.37,21.17,13.03,33.37,16.83,12.34,3.83,27.18,5.78,44.11,5.78,9.29,0,19.37-.64,29.97-1.92,4.8-.57,9.81-1.23,15.01-1.99l-97.93-134.91ZM2534.07,240.37c-11.82,11.55-27.26,17.4-45.86,17.4h-90.72c-4.11,0-7.9,2.52-9.2,6.41-2.83,8.47-11,14.48-20.52,14.03-10.47-.49-19.08-9.11-19.56-19.58-.4-8.63,4.52-16.16,11.76-19.59,7.14-3.38,13.6-8.06,18.49-14.27l.16-.2c6.65-8.44,10.26-18.87,10.26-29.62v-91.62h99.34c19.94,0,35.86,6.82,47.34,20.29,11.09,13.03,16.48,32.31,16.48,58.94s-5.88,46.03-17.96,57.81Z"/>
          <path class="cls-6" d="M3039.59,138.61c-10.42-25.19-20.61-46.03-30.27-61.91-9.13-15-19.59-26.83-31.09-35.16-11.36-8.23-25.34-14.03-41.52-17.24-17.22-3.4-39.27-5.12-65.56-5.12h-113.16v443.54h100.3v-77.77h176.4l31.5,77.77h107.51l-134.1-324.12ZM2858.28,304.09V98.61l14.81,2.25c17.91,2.73,34.01,12.58,47.85,29.32,12.8,15.46,25.19,38.04,37.87,69.05l42.76,104.86h-143.29Z"/>
          <path class="cls-6" d="M3497.45,58.38c0,22.29-18.14,40.43-40.43,40.43h-90.97v236.47l-12.85,10.19,12.85,10.19v.03l-12.85,10.17,12.85,10.19v.03l-12.85,10.19,12.85,10.17v.03l-12.85,10.19,12.85,10.17v.03l-12.85,10.19,12.85,10.19v.03l-12.85,10.17,12.85,10.19v3.87h-101.65l9.74-7.72,3.13-2.48-12.85-10.17h-.01s.01-.03.01-.03l12.85-10.19-12.85-10.19h-.01s.01-.03.01-.03l12.85-10.17-12.85-10.19h-.01s.01-.03.01-.03l12.85-10.17-12.85-10.19h-.01s.01-.03.01-.03l12.85-10.19-12.85-10.17h-.01s.01-.03.01-.03l12.85-10.19-12.85-10.19h-.01V98.81h-90.96c-22.29,0-40.43-18.14-40.43-40.43,0-1.3.06-2.59.18-3.86.87-9.34,4.93-18.01,11.65-24.74,7.64-7.63,17.8-11.83,28.6-11.83h126.63v17.17h30.87v-17.17h126.07c20.99,0,38.29,16.08,40.25,36.57.12,1.27.18,2.56.18,3.86Z"/>
        </g>
        <text class="cls-1" transform="translate(1148.19 775.53)"><tspan class="cls-9" x="0" y="0">PRODU</tspan><tspan class="cls-13" x="1400.64" y="0">C</tspan><tspan class="cls-16" x="1678.19" y="0">T</tspan><tspan class="cls-9" x="1944.73" y="0">S</tspan></text>
      </g>
      <g>
        <path class="cls-6" d="M702.54,460.85c0,47.36-9.31,93.37-27.67,136.77-17.69,41.85-43.01,79.4-75.22,111.61-32.21,32.21-69.76,57.52-111.61,75.22-32.09,13.58-65.6,22.2-100.04,25.77-12.14,1.27-24.4,1.9-36.74,1.9-39.42,0-77.91-6.45-114.74-19.21-7.42-2.56-14.77-5.37-22.03-8.45-41.85-17.69-79.4-43.01-111.61-75.22-32.21-32.21-57.52-69.76-75.22-111.61C9.31,554.22,0,508.2,0,460.85V101.87C44.06,58.73,94.99,24.49,151.48,0v446.56c-.33,4.72-.5,9.48-.5,14.28,0,67.94,33.83,127.98,85.55,164.18,32.5,22.76,72.07,36.11,114.74,36.11,12.55,0,24.83-1.16,36.74-3.36,93.07-17.25,163.56-98.87,163.56-196.93s-70.49-179.68-163.56-196.93c-11.91-2.2-24.19-3.36-36.74-3.36-42.68,0-82.24,13.36-114.74,36.11v-167.87c36.83-12.76,75.32-19.21,114.74-19.21,47.36,0,93.37,9.31,136.77,27.67,41.85,17.69,79.4,43.01,111.61,75.22,32.21,32.21,57.52,69.76,75.22,111.61,18.36,43.4,27.67,89.42,27.67,136.77Z"/>
        <path class="cls-2" d="M388.01,263.91v305.64c-11.53,3.91-23.89,6.03-36.74,6.03-63.27,0-114.74-51.47-114.74-114.74v-164.18c32.5-22.76,72.07-36.11,114.74-36.11,12.55,0,24.83,1.16,36.74,3.36Z"/>
        <path class="cls-2" d="M388.01,896.14v24.74l-151.48,151.48v-189.95c37.21,10.15,75.62,15.26,114.74,15.26,12.32,0,24.57-.5,36.74-1.53Z"/>
      </g>
    </g>
  </g>
</svg>