<?xml version="1.0" encoding="UTF-8"?>
<svg id="Layer_2" data-name="Layer 2" xmlns="http://www.w3.org/2000/svg" viewBox="0 0 299.86 457.71">
  <defs>
    <style>
      .cls-1 {
        fill: #fff;
        stroke-width: 0px;
      }
    </style>
  </defs>
  <g id="Layer_1-2" data-name="Layer 1">
    <g>
      <path class="cls-1" d="M299.86,196.7c0,20.21-3.97,39.85-11.81,58.38-7.55,17.86-18.36,33.89-32.1,47.64-13.75,13.75-29.78,24.55-47.64,32.1-13.7,5.8-28,9.48-42.7,11-5.18.54-10.41.81-15.68.81-16.83,0-33.26-2.75-48.97-8.2-3.17-1.09-6.3-2.29-9.4-3.61-17.86-7.55-33.89-18.36-47.64-32.1-13.75-13.75-24.55-29.78-32.1-47.64C3.97,236.56,0,216.92,0,196.7V43.48C18.81,25.07,40.55,10.45,64.66,0v190.61c-.14,2.01-.21,4.05-.21,6.1,0,29,14.44,54.62,36.52,70.08,13.87,9.71,30.76,15.41,48.97,15.41,5.36,0,10.6-.49,15.68-1.43,39.73-7.36,69.81-42.2,69.81-84.06s-30.09-76.69-69.81-84.06c-5.08-.94-10.32-1.43-15.68-1.43-18.22,0-35.1,5.7-48.97,15.41V54.97c15.72-5.45,32.15-8.2,48.97-8.2,20.21,0,39.85,3.97,58.38,11.81,17.86,7.55,33.89,18.36,47.64,32.1,13.75,13.75,24.55,29.78,32.1,47.64,7.84,18.52,11.81,38.17,11.81,58.38Z"/>
      <path class="cls-1" d="M165.61,112.65v130.46c-4.92,1.67-10.2,2.57-15.68,2.57-27,0-48.97-21.97-48.97-48.97v-70.08c13.87-9.71,30.76-15.41,48.97-15.41,5.36,0,10.6.49,15.68,1.43Z"/>
      <path class="cls-1" d="M165.61,382.5v10.56l-64.66,64.66v-81.07c15.88,4.33,32.28,6.51,48.97,6.51,5.26,0,10.49-.21,15.68-.65Z"/>
    </g>
  </g>
</svg>